<?xml version="1.0" encoding="UTF-8" standalone="no"?>
<svg
   xmlns:dc="http://purl.org/dc/elements/1.1/"
   xmlns:cc="http://creativecommons.org/ns#"
   xmlns:rdf="http://www.w3.org/1999/02/22-rdf-syntax-ns#"
   xmlns:svg="http://www.w3.org/2000/svg"
   xmlns="http://www.w3.org/2000/svg"
   xmlns:sodipodi="http://sodipodi.sourceforge.net/DTD/sodipodi-0.dtd"
   xmlns:inkscape="http://www.inkscape.org/namespaces/inkscape"
   version="1.1"
   width="128"
   height="64"
   id="svg3237"
   inkscape:version="1.0rc1 (09960d6f05, 2020-04-09)"
   sodipodi:docname="winds.svg">
  <sodipodi:namedview
     pagecolor="#ffffff"
     bordercolor="#666666"
     borderopacity="1"
     objecttolerance="10"
     gridtolerance="10"
     guidetolerance="10"
     inkscape:pageopacity="0"
     inkscape:pageshadow="2"
     inkscape:window-width="1600"
     inkscape:window-height="1116"
     id="namedview8"
     showgrid="false"
     inkscape:zoom="2.8779684"
     inkscape:cx="116.37521"
     inkscape:cy="64.373207"
     inkscape:window-x="-8"
     inkscape:window-y="-8"
     inkscape:window-maximized="1"
     inkscape:current-layer="svg3237"
     fit-margin-top="0"
     fit-margin-left="0"
     fit-margin-right="0"
     fit-margin-bottom="0"
     inkscape:document-rotation="0" />
  <defs
     id="defs3239" />
  <metadata
     id="metadata3242">
    <rdf:RDF>
      <cc:Work
         rdf:about="">
        <dc:format>image/svg+xml</dc:format>
        <dc:type
           rdf:resource="http://purl.org/dc/dcmitype/StillImage" />
        <dc:title></dc:title>
      </cc:Work>
    </rdf:RDF>
  </metadata>
  <rect
     style="fill:#e58a00;fill-opacity:1;stroke:none;stroke-width:0;stroke-miterlimit:4;stroke-dasharray:none"
     id="rect6731-9-200"
     y="0"
     x="0"
     ry="0"
     height="64"
     width="128" />
  <g
     aria-label="東 南"
     id="text845"
     style="font-style:normal;font-variant:normal;font-weight:normal;font-stretch:normal;font-size:54.104px;line-height:125%;font-family:EPSONTruePrint;-inkscape-font-specification:EPSONTruePrint;letter-spacing:0px;word-spacing:0px;fill:#000000;fill-opacity:1;stroke:none;stroke-width:0;stroke-linecap:butt;stroke-linejoin:miter;stroke-miterlimit:4;stroke-dasharray:none;stroke-opacity:1">
    <path
       d="m 26.025751,6.7877248 q 0,0.7397031 0.845375,1.69075 0.581195,0.5811953 0.845375,1.6907502 0.158507,2.536125 0.211343,4.860906 -5.600609,0.898211 -10.567187,1.268063 l -0.211344,0.422687 q 1.373734,1.109555 3.3815,1.69075 3.328664,-0.634031 7.397031,-1.268062 v 4.860906 q -5.283594,0.845375 -9.299125,1.479406 -1.69075,-0.845375 -3.3815,-0.845375 l -0.422687,0.422688 q 0,0.422687 0.845375,1.268062 0.369851,0.369852 0.634031,1.268063 1.42657,4.966578 2.536125,9.510468 1.268062,2.747469 2.536125,2.747469 0.634031,0 1.268062,-1.056719 h 1.268063 q 0.792539,-0.211343 1.69075,-0.422687 -6.128969,9.087781 -16.4848125,15.639437 l 0.4226875,0.422688 q 9.616141,-4.015531 18.386906,-12.469281 v 10.778531 q -0.05284,1.479406 -1.479406,1.479406 -0.792539,0 -4.438219,-0.422687 l -0.422687,0.422687 q 5.336429,3.064485 6.551656,4.860906 1.162391,1.69075 1.69075,1.69075 1.162391,0 2.113438,-5.283593 -0.686868,-7.502704 -0.845375,-16.273469 7.608375,7.766883 13.737343,15.21675 6.445985,-0.158508 12.891969,-1.479406 v -0.422688 q -6.763,-1.69075 -13.103312,-5.283594 -5.706282,-3.3815 -13.314657,-9.721812 2.324782,-0.475524 4.015532,-0.634031 h 1.69075 q 1.585078,0.845375 2.113437,0.845375 1.109555,0 1.69075,-1.268063 1.585078,-5.07225 3.592844,-10.567187 0.581195,-0.792539 1.479406,-1.479407 0,-1.215226 -4.649562,-3.170156 -0.739704,0.26418 -2.113438,0.845375 -2.007766,0.422688 -7.819719,1.268063 v -4.860907 q 4.808071,-0.634031 9.933157,-1.056718 1.479406,-0.158508 1.479406,-0.634032 0,-1.902093 -5.07225,-2.536125 -0.686867,0.211344 -2.113438,1.268063 -2.007765,0.634031 -4.015531,0.845375 v -2.324781 q 0.422688,-2.007766 0.422688,-3.1701567 -1.902094,-2.536125 -5.494938,-2.536125 z M 22.432907,29.190162 q 1.003883,0.686868 2.113437,1.056719 l 3.3815,-0.634031 v 4.438219 q -2.85314,0.528359 -5.494937,1.056718 -1.479407,-4.966578 -2.536125,-9.933156 3.962695,-0.792539 8.031062,-1.268062 V 27.9221 q -2.430453,0.422687 -5.283594,0.845375 z m 16.9075,-6.974343 q 0.634031,0 0.634031,0.634031 -0.369852,2.800305 -2.113437,9.933156 -0.634032,-0.105672 -1.69075,-0.211344 -2.271946,0.317016 -5.07225,0.845375 v -4.226875 q 2.747468,-0.317015 5.283593,-0.634031 1.056719,-0.158508 1.056719,-0.845375 0,-1.268062 -3.170156,-1.69075 -0.475524,0.158508 -1.056719,0.845375 -1.056719,0.317016 -2.113437,0.422688 l 0.211343,-4.015532 q 3.90986,-0.581195 8.031063,-1.056718 z"
       style="stroke-width:0"
       id="path851"
       inkscape:connector-curvature="0" />
    <path
       d="m 103.60754,40.748845 q -0.52835,0.31701 -1.26806,0.84537 -2.16627,0.63403 -4.649558,1.26806 v -2.32478 q -0.10567,-0.84537 -0.63403,-1.90209 4.385378,-0.89821 7.819718,-1.05672 1.26806,-0.10567 1.26806,-0.63403 0,-1.53224 -4.22688,-1.90209 -0.7397,0.63403 -1.26806,1.05671 -1.954928,0.47553 -2.958808,0.84538 2.853138,-3.3815 4.860908,-5.706281 0,-0.686867 -1.26807,-1.479407 5.01942,-0.845375 10.98988,-1.902093 1.00388,0.05284 1.05672,1.268062 -0.42269,8.876439 -2.11344,18.809589 -0.31702,1.9021 -1.47941,1.9021 -1.05672,0 -5.49493,-0.63403 v 0.42268 q 4.54389,3.11733 5.70628,4.64957 1.84925,2.32478 2.32478,2.32478 1.90209,0 3.3815,-8.03106 0.89821,-4.80807 2.11344,-18.175566 0.21134,-1.215227 0.63403,-2.324782 0,-1.373734 -5.07225,-3.170156 -1.05672,0.634031 -3.17016,1.056719 -8.77076,1.69075 -17.118841,3.170156 0.89821,-3.857023 2.113437,-8.876437 6.023294,-1.268063 14.160034,-1.479407 1.69075,-0.105671 1.69075,-1.056718 0,-2.007766 -6.12897,-2.747469 -0.73971,0.951047 -1.69075,1.268062 -3.751348,0.739704 -7.397033,1.479407 0.686865,-3.064485 1.690755,-6.551657 Q 96.210512,7.35653 90.926921,7.35653 l -0.211344,0.422687 q 0.105672,0.634032 0.845375,1.479407 0.686867,0.792539 0.845375,1.902093 -0.317015,4.438219 -0.845375,7.397032 -5.759117,1.320898 -11.412562,2.747468 l -0.211344,0.422688 q 1.162391,0.634031 2.747469,1.479406 4.438218,-1.373734 8.665094,-2.324781 -0.422688,3.909859 -1.268063,8.665094 -4.966578,1.003883 -9.087781,1.479406 h -1.479407 q -1.479406,-0.634031 -2.324781,-0.634031 l -0.422687,0.211343 q 0.105672,0.739704 1.056718,2.113438 1.056719,6.974345 1.056719,13.314655 l -0.211344,2.95881 q 1.69075,4.64957 3.3815,4.64957 1.268063,0 1.268063,-2.11344 -1.056719,-9.72181 -2.324781,-18.38691 h 1.056718 q 2.853141,-0.475521 5.494938,-0.845373 2.007766,4.860903 4.860906,4.860903 1.056719,0 1.056719,-1.05672 0,-0.52835 -1.056719,-2.11343 -1.268062,-0.42269 -3.804187,-1.902096 4.174039,-0.792539 9.299122,-1.69075 0.21135,0.528359 0.21135,1.056718 -0.5812,2.219108 -1.9021,5.706278 -5.177919,1.47941 -10.355841,2.53613 l -0.211344,0.42269 q 0.845375,0.52836 2.324781,1.05671 2.48329,-0.89821 5.706282,-1.69075 0.317015,0.10568 0.422687,0.63404 0.211344,1.53224 0.211344,3.3815 -4.80807,1.10955 -9.510469,2.32478 l -0.211344,0.42268 q 1.056719,0.52836 2.536125,1.05672 4.068368,-1.10955 7.185688,-1.69075 l 0.211344,7.39703 q 0.739703,1.69076 1.479407,1.69076 1.05672,0 1.26806,-1.9021 0.21135,-3.96269 0.21135,-7.81972 4.279708,-0.89821 8.876428,-1.26806 1.47941,-0.15851 1.47941,-0.63403 0,-1.79642 -4.22688,-2.32478 z"
       style="stroke-width:0"
       id="path853"
       inkscape:connector-curvature="0" />
  </g>
</svg>
